<?xml version="1.0" standalone="no"?>
<!DOCTYPE svg PUBLIC "-//W3C//DTD SVG 20010904//EN"
 "http://www.w3.org/TR/2001/REC-SVG-20010904/DTD/svg10.dtd">
<svg version="1.0" xmlns="http://www.w3.org/2000/svg"
 width="433.000000pt" height="433.000000pt" viewBox="0 0 433.000000 433.000000"
 preserveAspectRatio="xMidYMid meet">
<metadata>
Created by potrace 1.14, written by Peter Selinger 2001-2017
</metadata>
<g transform="translate(0.000000,433.000000) scale(0.100000,-0.100000)"
fill="#000000" stroke="none">
<path d="M417 4305 c-98 -34 -170 -80 -244 -159 -82 -86 -118 -144 -143 -225
-20 -62 -20 -101 -20 -1765 l0 -1701 24 -58 c38 -93 86 -165 156 -236 68 -70
124 -106 215 -140 56 -21 60 -21 1754 -21 1673 0 1699 0 1756 20 180 62 307
197 376 399 18 52 19 120 19 1743 l0 1689 -26 77 c-48 145 -156 273 -286 339
-132 68 20 63 -1832 62 l-1681 0 -68 -24z"/>
</g>
</svg>
